<svg xmlns="http://www.w3.org/2000/svg" viewBox="85.61 12.88 314.58 313.73">
  <defs>
    <path id="p-e2" d="M 192.05 65.39 C 192.10 92.80 192.18 147.62 192.25 174.95 C 192.33 202.28 192.41 202.13 192.45 202.05 C 192.49 201.97 192.49 201.97 199.99 201.69 C 207.49 201.42 222.49 200.87 231.96 200.63 C 241.42 200.40 245.35 200.48 247.23 200.32 C 249.12 200.16 248.96 199.77 250.88 203.62 C 252.81 207.47 256.81 215.56 258.82 219.60 C 260.82 223.65 260.82 223.65 260.78 223.65 C 260.74 223.65 260.66 223.65 245.39 223.72 C 230.11 223.80 199.64 223.96 184.20 224.08 C 168.77 224.20 168.38 224.27 168.14 224.43 C 167.91 224.59 167.83 224.82 167.86 200.60 C 167.88 176.38 168.01 127.71 168.08 103.10 C 168.15 78.50 168.15 77.96 168.12 77.65 C 168.08 77.34 168.02 77.27 167.98 77.21 C 167.95 77.15 167.93 77.11 167.92 77.11 C 167.91 77.11 167.90 77.15 167.89 77.16 C 167.88 77.16 167.88 77.14 166.29 78.67 C 164.69 80.20 161.51 83.28 157.88 87.11 C 154.25 90.93 150.19 95.50 146.67 100.15 C 143.16 104.80 140.19 109.52 137.51 114.61 C 134.83 119.69 132.44 125.14 130.84 129.22 C 129.25 133.29 128.46 136.00 127.57 139.34 C 126.68 142.67 125.69 146.65 125.03 152.49 C 124.37 158.34 124.04 166.05 124.14 172.84 C 124.24 179.63 124.77 185.49 125.61 190.56 C 126.46 195.62 127.62 199.89 128.78 203.70 C 129.93 207.51 131.07 210.87 132.83 214.91 C 134.59 218.96 136.96 223.68 139.11 227.58 C 141.27 231.48 143.20 234.55 145.77 238.14 C 148.34 241.72 151.55 245.80 155.76 250.22 C 159.96 254.63 165.17 259.38 169.35 262.85 C 173.52 266.32 176.66 268.52 180.89 271.13 C 185.12 273.73 190.44 276.74 195.18 278.92 C 199.93 281.11 204.10 282.47 208.17 283.65 C 212.23 284.82 216.19 285.81 219.13 286.51 C 222.07 287.22 224.01 287.63 226.69 288.01 C 229.37 288.38 232.80 288.71 236.56 288.96 C 240.33 289.22 244.44 289.39 248.78 289.35 C 253.12 289.30 257.69 289.04 261.90 288.49 C 266.10 287.94 269.95 287.11 272.67 286.51 C 275.40 285.92 277.00 285.57 278.13 285.28 C 279.26 285.00 279.92 284.78 280.25 284.67 C 280.58 284.56 280.58 284.56 280.58 288.12 C 280.58 291.69 280.58 298.81 280.58 302.37 C 280.58 305.93 280.58 305.92 280.56 305.93 C 280.54 305.95 280.49 305.99 278.96 306.37 C 277.44 306.75 274.42 307.46 271.54 308.00 C 268.66 308.53 265.90 308.88 263.21 309.27 C 260.52 309.65 257.90 310.06 253.33 310.30 C 248.77 310.54 242.25 310.61 237.66 310.48 C 233.06 310.35 230.38 310.03 226.60 309.47 C 222.81 308.91 217.93 308.11 214.26 307.39 C 210.59 306.67 208.15 306.04 204.89 305.05 C 201.63 304.06 197.57 302.72 193.99 301.35 C 190.41 299.99 187.32 298.61 183.63 296.81 C 179.95 295.01 175.67 292.79 172.46 291.01 C 169.25 289.24 167.10 287.90 164.09 285.81 C 161.07 283.71 157.19 280.86 152.51 276.87 C 147.83 272.88 142.36 267.76 138.33 263.51 C 134.30 259.27 131.72 255.91 128.10 250.78 C 124.48 245.66 119.83 238.78 116.88 233.26 C 113.93 227.75 112.67 223.60 111.32 219.75 C 109.98 215.90 108.53 212.34 107.24 208.02 C 105.95 203.70 104.81 198.62 103.99 194.18 C 103.17 189.74 102.66 185.94 102.27 181.29 C 101.88 176.64 101.61 171.12 101.86 164.36 C 102.12 157.59 102.90 149.58 104.23 142.42 C 105.56 135.26 107.43 128.97 109.94 122.28 C 112.44 115.59 115.57 108.52 119.38 101.79 C 123.19 95.06 127.69 88.69 132.87 82.30 C 138.05 75.90 143.92 69.49 149.65 64.27 C 155.38 59.05 160.97 55.02 165.17 52.18 C 169.38 49.35 172.19 47.71 174.80 46.30 C 177.40 44.89 179.78 43.72 181.99 42.66 C 184.20 41.60 186.23 40.67 187.64 40.03 C 189.04 39.39 189.82 39.05 190.39 38.79 C 190.96 38.53 191.33 38.34 191.55 38.23 C 191.77 38.11 191.84 38.07 191.89 38.04 C 191.93 38.02 191.95 38.01 191.97 38.00 C 191.98 37.99 192.00 37.99 192.05 65.39 Z" fill-rule="evenodd"/>
    <path id="p-e3" d="M 201.25 38.59 C 201.22 42.01 201.33 48.83 201.38 52.96 C 201.44 57.09 201.44 58.53 201.42 59.12 C 201.40 59.71 201.37 59.45 202.95 58.81 C 204.54 58.16 207.75 57.13 212.30 55.95 C 216.86 54.77 222.76 53.44 229.14 52.68 C 235.52 51.93 242.38 51.74 247.76 51.82 C 253.15 51.89 257.06 52.22 260.71 52.72 C 264.36 53.22 267.75 53.88 271.33 54.79 C 274.91 55.69 278.67 56.83 282.62 58.18 C 286.56 59.53 290.69 61.08 295.32 63.36 C 299.95 65.65 305.08 68.67 309.76 71.92 C 314.45 75.16 318.69 78.63 322.47 82.02 C 326.25 85.42 329.57 88.74 332.48 92.02 C 335.39 95.30 337.90 98.55 340.39 102.16 C 342.88 105.78 345.35 109.76 347.45 113.54 C 349.56 117.32 351.29 120.90 352.91 124.84 C 354.54 128.79 356.05 133.11 357.23 136.74 C 358.41 140.37 359.26 143.32 359.96 146.79 C 360.66 150.26 361.21 154.24 361.56 158.59 C 361.91 162.94 362.06 167.66 361.86 172.83 C 361.65 177.99 361.10 183.60 360.21 189.04 C 359.33 194.48 358.11 199.75 356.14 205.74 C 354.17 211.74 351.44 218.45 348.86 223.56 C 346.27 228.67 343.84 232.17 341.90 235.08 C 339.97 238.00 338.53 240.32 336.52 242.87 C 334.51 245.41 331.93 248.18 330.32 249.98 C 328.72 251.79 328.09 252.64 327.41 253.32 C 326.73 254.00 325.99 254.52 325.62 254.78 C 325.25 255.04 325.25 255.04 325.27 259.35 C 325.29 263.67 325.32 272.30 325.36 277.06 C 325.40 281.81 325.44 282.70 325.53 283.07 C 325.62 283.44 325.77 283.29 329.18 280.38 C 332.59 277.46 339.27 271.78 344.54 266.49 C 349.81 261.20 353.69 256.29 356.66 252.40 C 359.62 248.51 361.69 245.63 364.16 241.47 C 366.63 237.30 369.51 231.84 372.22 225.48 C 374.93 219.11 377.48 211.85 379.14 205.98 C 380.80 200.12 381.57 195.66 382.29 190.90 C 383.01 186.14 383.67 181.09 383.93 175.00 C 384.19 168.92 384.04 161.80 383.64 156.03 C 383.23 150.26 382.57 145.83 381.22 140.04 C 379.87 134.25 377.84 127.09 375.36 120.47 C 372.86 113.85 369.92 107.77 366.95 102.42 C 363.98 97.07 360.99 92.46 357.58 87.78 C 354.17 83.09 350.33 78.34 346.96 74.57 C 343.58 70.81 340.67 68.05 336.35 64.40 C 332.04 60.74 326.32 56.21 321.12 52.63 C 315.92 49.05 311.24 46.43 306.26 43.98 C 301.28 41.53 296.00 39.24 290.51 37.27 C 285.01 35.30 279.30 33.64 273.58 32.40 C 267.86 31.16 262.15 30.35 256.74 29.78 C 251.34 29.21 246.25 28.88 241.20 28.95 C 236.14 29.03 231.13 29.50 226.06 30.21 C 220.99 30.91 215.86 31.83 212.56 32.49 C 209.26 33.16 207.78 33.56 206.66 33.88 C 205.53 34.19 204.76 34.41 204.22 34.54 C 203.69 34.67 203.39 34.71 203.10 34.77 C 202.81 34.83 202.53 34.92 202.28 34.99 C 202.04 35.06 201.84 35.10 201.65 35.13 C 201.46 35.16 201.28 35.17 201.25 38.59 Z" fill-rule="evenodd"/>
    <path id="p-e4" d="M 207.14 174.55 C 214.06 174.62 220.98 174.69 224.47 174.73 C 227.97 174.76 228.05 174.76 228.01 170.83 C 227.96 166.90 227.81 159.05 227.71 154.82 C 227.61 150.59 227.57 149.98 227.56 149.68 C 227.55 149.38 227.57 149.37 228.29 150.26 C 229.02 151.14 230.46 152.91 234.23 157.55 C 238.01 162.20 244.11 169.72 247.98 174.42 C 251.84 179.12 253.45 181.00 255.09 182.87 C 256.72 184.75 258.38 186.63 259.36 187.77 C 260.34 188.92 260.65 189.33 260.81 189.52 C 260.97 189.70 261.00 189.66 263.20 186.91 C 265.40 184.16 269.79 178.71 273.18 174.56 C 276.57 170.42 278.97 167.59 281.07 165.14 C 283.18 162.70 284.99 160.65 286.39 158.97 C 287.78 157.29 288.76 155.98 289.48 155.01 C 290.20 154.04 290.66 153.41 290.90 153.01 C 291.14 152.60 291.16 152.43 291.15 176.21 C 291.14 200.00 291.10 247.74 291.07 272.50 C 291.05 297.25 291.05 299.02 291.04 300.45 C 291.03 301.87 291.01 302.97 291.02 303.52 C 291.03 304.08 291.07 304.10 291.58 303.87 C 292.08 303.64 293.04 303.16 295.77 301.20 C 298.51 299.24 303.03 295.79 306.29 293.25 C 309.55 290.71 311.56 289.07 312.86 288.08 C 314.17 287.09 314.78 286.74 315.10 286.56 C 315.42 286.39 315.44 286.39 315.41 279.34 C 315.37 272.30 315.29 258.21 315.27 245.68 C 315.26 233.15 315.33 222.18 315.33 214.18 C 315.33 206.19 315.26 201.17 315.20 187.13 C 315.14 173.09 315.08 150.03 315.10 133.45 C 315.13 116.87 315.24 106.79 315.27 101.54 C 315.31 96.30 315.29 95.89 315.22 95.64 C 315.16 95.40 315.07 95.31 315.00 95.25 C 314.94 95.19 314.92 95.15 314.58 95.45 C 314.25 95.75 313.62 96.40 310.97 99.46 C 308.33 102.51 303.68 107.96 299.57 112.77 C 295.46 117.57 291.88 121.73 289.57 124.53 C 287.26 127.32 286.22 128.77 283.63 131.76 C 281.05 134.75 276.92 139.29 273.96 142.77 C 270.99 146.24 269.18 148.65 267.40 150.72 C 265.61 152.78 263.85 154.49 262.74 155.70 C 261.63 156.90 261.17 157.60 260.93 157.97 C 260.70 158.34 260.70 158.38 257.76 154.72 C 254.82 151.06 248.93 143.69 243.12 136.63 C 237.30 129.56 231.55 122.79 226.52 116.84 C 221.50 110.88 217.19 105.74 214.58 102.54 C 211.98 99.35 211.09 98.11 210.52 97.33 C 209.95 96.55 209.71 96.23 209.49 96.10 C 209.27 95.97 209.08 96.02 208.96 96.08 C 208.84 96.14 208.79 96.21 208.73 96.32 C 208.67 96.43 208.60 96.57 208.57 102.19 C 208.55 107.81 208.57 118.90 208.34 132.06 C 208.10 145.23 207.64 159.33 207.14 174.55 Z" fill-rule="evenodd"/>
    <linearGradient id="gouro" x1="0" y1="0" x2="0.25" y2="1">
      <stop offset="0" stop-color="#FFF0B4"/><stop offset="0.28" stop-color="#F7CF4A"/>
      <stop offset="0.52" stop-color="#E0A81C"/><stop offset="0.75" stop-color="#F5C542"/>
      <stop offset="1" stop-color="#B57E11"/>
    </linearGradient>
    <linearGradient id="gcromo" x1="0" y1="0" x2="0.25" y2="1">
      <stop offset="0" stop-color="#FFFFFF"/><stop offset="0.3" stop-color="#E8EDF5"/>
      <stop offset="0.52" stop-color="#AFBACB"/><stop offset="0.74" stop-color="#F2F5FA"/>
      <stop offset="1" stop-color="#8E9AAC"/>
    </linearGradient>
    <linearGradient id="luz" x1="0" y1="0" x2="0.2" y2="1">
      <stop offset="0" stop-color="#fff" stop-opacity="0.8"/>
      <stop offset="0.35" stop-color="#fff" stop-opacity="0.1"/>
      <stop offset="1" stop-color="#fff" stop-opacity="0"/>
    </linearGradient>
    <filter id="sombraE" x="-25%" y="-25%" width="170%" height="170%">
      <feDropShadow dx="4" dy="6" stdDeviation="3.2" flood-color="#000" flood-opacity="0.55"/>
    </filter>
  </defs>
  <g filter="url(#sombraE)">
    <use href="#p-e2" x="8.00" y="8.00" fill="#32363e"/>
    <use href="#p-e2" x="7.43" y="7.43" fill="#353942"/>
    <use href="#p-e2" x="6.86" y="6.86" fill="#383d46"/>
    <use href="#p-e2" x="6.29" y="6.29" fill="#3b404a"/>
    <use href="#p-e2" x="5.71" y="5.71" fill="#3f444e"/>
    <use href="#p-e2" x="5.14" y="5.14" fill="#424752"/>
    <use href="#p-e2" x="4.57" y="4.57" fill="#454b56"/>
    <use href="#p-e2" x="4.00" y="4.00" fill="#494f5b"/>
    <use href="#p-e2" x="3.43" y="3.43" fill="#4c525f"/>
    <use href="#p-e2" x="2.86" y="2.86" fill="#4f5663"/>
    <use href="#p-e2" x="2.29" y="2.29" fill="#525967"/>
    <use href="#p-e2" x="1.71" y="1.71" fill="#565d6b"/>
    <use href="#p-e2" x="1.14" y="1.14" fill="#59606f"/>
    <use href="#p-e2" x="0.57" y="0.57" fill="#5c6473"/>
<use href="#p-e3" x="8.00" y="8.00" fill="#32363e"/>
    <use href="#p-e3" x="7.43" y="7.43" fill="#353942"/>
    <use href="#p-e3" x="6.86" y="6.86" fill="#383d46"/>
    <use href="#p-e3" x="6.29" y="6.29" fill="#3b404a"/>
    <use href="#p-e3" x="5.71" y="5.71" fill="#3f444e"/>
    <use href="#p-e3" x="5.14" y="5.14" fill="#424752"/>
    <use href="#p-e3" x="4.57" y="4.57" fill="#454b56"/>
    <use href="#p-e3" x="4.00" y="4.00" fill="#494f5b"/>
    <use href="#p-e3" x="3.43" y="3.43" fill="#4c525f"/>
    <use href="#p-e3" x="2.86" y="2.86" fill="#4f5663"/>
    <use href="#p-e3" x="2.29" y="2.29" fill="#525967"/>
    <use href="#p-e3" x="1.71" y="1.71" fill="#565d6b"/>
    <use href="#p-e3" x="1.14" y="1.14" fill="#59606f"/>
    <use href="#p-e3" x="0.57" y="0.57" fill="#5c6473"/>
<use href="#p-e4" x="8.00" y="8.00" fill="#412608"/>
    <use href="#p-e4" x="7.43" y="7.43" fill="#442807"/>
    <use href="#p-e4" x="6.86" y="6.86" fill="#482b07"/>
    <use href="#p-e4" x="6.29" y="6.29" fill="#4c2e07"/>
    <use href="#p-e4" x="5.71" y="5.71" fill="#503107"/>
    <use href="#p-e4" x="5.14" y="5.14" fill="#543407"/>
    <use href="#p-e4" x="4.57" y="4.57" fill="#583707"/>
    <use href="#p-e4" x="4.00" y="4.00" fill="#5c3a07"/>
    <use href="#p-e4" x="3.43" y="3.43" fill="#603c06"/>
    <use href="#p-e4" x="2.86" y="2.86" fill="#643f06"/>
    <use href="#p-e4" x="2.29" y="2.29" fill="#684206"/>
    <use href="#p-e4" x="1.71" y="1.71" fill="#6c4506"/>
    <use href="#p-e4" x="1.14" y="1.14" fill="#704806"/>
    <use href="#p-e4" x="0.57" y="0.57" fill="#744b06"/>
  </g>
  <use href="#p-e2" fill="#2A3244" stroke="#2A3244" stroke-width="2.4" stroke-linejoin="round"/>
  <use href="#p-e2" fill="url(#gcromo)"/>
  <use href="#p-e2" fill="url(#luz)"/>
  <use href="#p-e3" fill="#2A3244" stroke="#2A3244" stroke-width="2.4" stroke-linejoin="round"/>
  <use href="#p-e3" fill="url(#gcromo)"/>
  <use href="#p-e3" fill="url(#luz)"/>
  <use href="#p-e4" fill="#6B4708" stroke="#6B4708" stroke-width="2.4" stroke-linejoin="round"/>
  <use href="#p-e4" fill="url(#gouro)"/>
  <use href="#p-e4" fill="url(#luz)"/>
</svg>
